<svg xmlns="http://www.w3.org/2000/svg" viewBox="0 0 384 512" width="384px" height="512px"><path fill="currentColor" d="M318.7 268.7c-.2-36.7 16.4-64.4 50-84.8-18.8-26.9-47.2-41.7-84.7-44.6-35.5-2.8-74.3 21.8-88.5 21.8-11.4 0-51.1-20.8-82.3-20.2-41.2.8-78.9 24.5-100.1 61.3-44.6 77.5-11.4 191.1 31.6 253.1 21.1 30.3 46.1 64 78.8 63 31.9-1.1 44.1-20.6 82.5-20.6 38.2 0 49.3 20.6 82.5 20 33.3-.6 55-30.2 76.1-60.7 24.1-35.2 33.9-69.4 34.1-71.1-.3-.1-65.4-25.1-65.7-100.1zM289.1 80c19.9-25.2 33.3-60.3 29.6-95.2-30 1.2-66.2 20.1-87.7 45.1-19.3 22.3-36.3 58-32.4 91.8 33.7 2.6 67.7-18.8 90.5-41.7z"/></svg>
